<?xml version="1.0" encoding="utf-8"?>
<!-- Generator: Adobe Illustrator 25.0.0, SVG Export Plug-In . SVG Version: 6.00 Build 0)  -->
<svg version="1.1" id="圖層_1" xmlns="http://www.w3.org/2000/svg" xmlns:xlink="http://www.w3.org/1999/xlink" x="0px" y="0px"
	 viewBox="0 0 344 434" style="enable-background:new 0 0 344 434;" xml:space="preserve">
<style type="text/css">
	.st0{fill:#FFFFFF;}
	.st1{fill:#424146;}
	.st2{fill:#FFD071;}
	.st3{fill:#FFAB15;}
	.st4{fill:none;stroke:#424146;stroke-width:10;stroke-linecap:round;stroke-miterlimit:10;}
	.st5{fill:#246CFC;}
	.st6{fill:#FF0855;}
	.st7{fill:#FFC840;}
	.st8{fill:#FCFC00;}
</style>
<g>
	<g>
		<g>
			<path class="st0" d="M88.38,194.95c-4.54,5.25-11.61,5.07-17.11,0.31c-5.51-4.76-6-10.89-1.46-16.14
				c4.54-5.25,10.09-4.01,15.6,0.75C90.92,184.62,92.92,189.7,88.38,194.95z"/>
		</g>
	</g>
	<g>
		<g>
			<path class="st1" d="M80.13,200.76c-3.49,0-7.07-1.44-10.11-4.06c-6.23-5.39-6.88-12.78-1.65-18.82
				c2.82-3.26,8.94-7.52,18.28,0.56c3.25,2.81,5.16,5.54,5.86,8.34c0.8,3.26-0.1,6.43-2.69,9.42l0,0c-2.53,2.92-5.95,4.55-9.62,4.57
				C80.18,200.76,80.16,200.76,80.13,200.76z M76.45,177.61c-2.83,0-4.46,1.89-5.2,2.74c-3.89,4.5-3.43,9.4,1.27,13.46
				c2.34,2.02,5.05,3.14,7.62,3.14c0.02,0,0.03,0,0.05,0c2.6-0.01,4.94-1.14,6.77-3.25l0,0c1.76-2.03,2.37-4.01,1.87-6.03
				c-0.49-1.99-2.06-4.13-4.65-6.38C80.95,178.52,78.41,177.61,76.45,177.61z"/>
		</g>
	</g>
</g>
<g>
	<g>
		<g>
			<path class="st0" d="M243.74,288.62c-4.41,5.93-8.47,6.75-14.44,4.29c-6.12-2.52-7.51-9.38-4.79-15.76
				c2.72-6.38,7.47-6.01,14.17-3.15C245.37,276.84,247.89,283.05,243.74,288.62z"/>
		</g>
	</g>
	<g>
		<g>
			<path class="st1" d="M234.9,296.11c-1.92,0-4-0.49-6.33-1.45c-2.97-1.23-5.16-3.4-6.34-6.28c-1.43-3.49-1.23-7.86,0.53-11.99
				c1.55-3.64,3.93-5.72,7.07-6.18c2.5-0.37,5.46,0.26,9.59,2.02c4.08,1.74,6.96,4.74,7.9,8.22c0.84,3.1,0.11,6.4-2.05,9.3h0
				C242.06,294.05,238.83,296.11,234.9,296.11z M231.25,273.92c-0.31,0-0.59,0.02-0.87,0.06c-1.22,0.18-2.79,0.79-4.12,3.91
				c-1.37,3.2-1.55,6.5-0.5,9.06c0.8,1.95,2.23,3.36,4.27,4.2c5.41,2.23,8.49,1.31,12.19-3.66h0c1.47-1.97,1.97-4.06,1.43-6.04
				c-0.63-2.35-2.72-4.43-5.72-5.71C235.05,274.51,232.9,273.92,231.25,273.92z"/>
		</g>
	</g>
</g>
<g>
	<g>
		<g>
			<g>
				<path class="st0" d="M34.18,327.88c0,0-2.36,7.72-12.92,7.2c-4.73-0.47-7.97,1.51-9.42,4.72c-1.01,3.42-5.08,7.62,11.47,17.24
					c8.61,4.05,21.75,10.67,33.41,0.16c6.57-7.3,9.04-10.77,9.04-10.77l-30.78-21.12L34.18,327.88z"/>
			</g>
		</g>
	</g>
	<g>
		<g>
			<g>
				<path class="st1" d="M42.54,365.35c-7.52,0-14.57-3.32-19.62-5.7l-0.89-0.43C6.7,350.32,7.22,344.86,9.06,340.04
					c0.13-0.35,0.26-0.68,0.34-0.96l0.12-0.33c2-4.42,6.45-6.74,11.92-6.21c8.11,0.37,10.11-4.79,10.32-5.43l1.79-5.86l35.75,24.53
					l-1.5,2.1c-0.1,0.15-2.63,3.67-9.22,10.99l-0.19,0.19C53.24,363.74,47.77,365.35,42.54,365.35z M24.49,354.79l0.59,0.28
					c8.35,3.93,19.76,9.31,29.84,0.33c3.51-3.9,5.82-6.69,7.19-8.4l-25.76-17.67c-1.4,3.42-5.98,8.73-15.22,8.28l-0.13-0.01
					c-3.27-0.33-5.67,0.78-6.8,3.11c-0.13,0.4-0.27,0.77-0.41,1.14C12.86,344.3,11.7,347.34,24.49,354.79z"/>
			</g>
		</g>
	</g>
</g>
<g>
	<g>
		<path class="st1" d="M14.83,351.56c-0.76,0-1.5-0.34-2-0.98c-0.86-1.1-0.66-2.7,0.44-3.56c0.24-0.19,0.53-0.48,0.86-0.83
			c2.02-2.08,5.41-5.56,15.38-3.54c1.37,0.28,2.26,1.61,1.98,2.99c-0.28,1.37-1.61,2.26-2.99,1.98c-7.26-1.47-9.11,0.43-10.74,2.11
			c-0.43,0.44-0.87,0.89-1.38,1.29C15.92,351.38,15.37,351.56,14.83,351.56z"/>
	</g>
</g>
<g>
	<g>
		<path class="st1" d="M22.73,359.41c-0.27,0-0.54-0.06-0.8-0.18c-0.95-0.44-1.37-1.57-0.93-2.52c2.2-4.76,6.67-6.5,12.91-5.02
			c1.02,0.24,1.65,1.27,1.41,2.29c-0.24,1.02-1.27,1.66-2.29,1.41c-6.52-1.54-8.02,1.7-8.58,2.91
			C24.13,359,23.45,359.41,22.73,359.41z"/>
	</g>
</g>
<g>
	<g>
		<g>
			<g>
				<path class="st0" d="M137.69,387.07c0,0-5.41,6,0.47,14.78c2.84,3.81,2.8,7.62,0.79,10.51c-2.42,2.63-3.93,8.27-20.68-0.98
					c-7.9-5.31-20.33-13.17-17.31-28.57c2.89-9.39,4.59-13.29,4.59-13.29l33.94,15.55L137.69,387.07z"/>
			</g>
		</g>
	</g>
	<g>
		<g>
			<g>
				<path class="st1" d="M132.42,419c-3.4,0-8.2-1.44-15.38-5.4l-0.19-0.12l-0.63-0.43c-7.86-5.27-21.01-14.09-17.75-30.74
					l0.06-0.26c2.9-9.42,4.62-13.39,4.69-13.56l1.03-2.36l39.42,18.06l-4.1,4.55c-0.44,0.51-3.85,4.88,0.65,11.64
					c3.26,4.42,3.56,9.43,0.8,13.41l-0.22,0.27c-0.19,0.21-0.41,0.49-0.65,0.79C138.45,417.05,136.38,419,132.42,419z
					 M119.59,409.22c12.96,7.14,14.97,4.58,16.59,2.52c0.24-0.31,0.49-0.63,0.77-0.94c1.42-2.17,1.13-4.8-0.83-7.43l-0.07-0.1
					c-3.55-5.3-3.48-9.82-2.8-12.68c0.53-2.23,1.5-3.82,2.09-4.62l-28.41-13.01c-0.76,2.05-1.96,5.47-3.51,10.48
					c-2.52,13.26,7.96,20.29,15.62,25.43L119.59,409.22z M139.57,388.76L139.57,388.76z"/>
			</g>
		</g>
	</g>
</g>
<g>
	<g>
		<g>
			<g>
				<path class="st1" d="M129.51,417.08c-0.1,0-0.21-0.01-0.31-0.02c-1.39-0.17-2.38-1.43-2.21-2.82c0.08-0.65,0.24-1.26,0.4-1.85
					c0.6-2.26,1.28-4.82-3.71-10.3c-0.94-1.03-0.87-2.64,0.16-3.58c1.03-0.94,2.64-0.87,3.58,0.17c6.86,7.52,5.61,12.21,4.87,15.02
					c-0.12,0.46-0.23,0.86-0.27,1.16C131.86,416.13,130.77,417.08,129.51,417.08z"/>
			</g>
		</g>
	</g>
</g>
<g>
	<g>
		<g>
			<g>
				<path class="st1" d="M118.16,414.02c-0.37,0-0.74-0.11-1.07-0.33c-0.87-0.59-1.09-1.77-0.5-2.64c0.75-1.11,2.76-4.06-1.91-8.86
					c-0.73-0.75-0.72-1.96,0.04-2.69c0.75-0.73,1.96-0.72,2.69,0.04c4.47,4.59,5.28,9.31,2.33,13.65
					C119.37,413.73,118.77,414.02,118.16,414.02z"/>
			</g>
		</g>
	</g>
</g>
<g>
	<g>
		<g>
			<path class="st0" d="M246.07,284.11l-19.86-11.34c0,0,19.43-81.68-7.1-92.77l33.87-4.83
				C252.97,175.17,292.75,208.74,246.07,284.11z"/>
		</g>
	</g>
	<g>
		<g>
			<path class="st1" d="M247.15,288.38l-24.58-14.03l0.55-2.31c5.23-21.99,14.48-80.87-5.24-89.11l-10.61-4.44l46.66-6.65l1.09,0.92
				c0.44,0.37,10.8,9.29,15.1,27.91c3.88,16.83,3.33,45.26-21.35,85.12L247.15,288.38z M229.81,271.18l15.16,8.65
				c17.32-28.88,23.92-55.56,19.08-77.3c-1.95-8.75-5.41-15.06-7.96-18.81c-1.7-2.49-3.24-4.22-4.18-5.2l-24.71,3.52
				c7.39,8.35,10.28,24.68,8.58,48.72C234.52,248.32,231.11,265.16,229.81,271.18z"/>
		</g>
	</g>
</g>
<g>
	<g>
		<g>
			<g>
				<path class="st0" d="M68.28,346.34l-30.95-20.42c-2.2-1.45-2.81-4.43-1.36-6.63l70.04-106.16c1.45-2.2,4.43-2.81,6.63-1.36
					l30.95,20.42c2.2,1.45,22.92,15.31,21.47,17.51l-90.15,95.28C73.46,347.18,70.48,347.79,68.28,346.34z"/>
			</g>
		</g>
	</g>
	<g>
		<g>
			<g>
				<path class="st1" d="M70.91,350.3c-1.5,0-3.02-0.42-4.37-1.31h0l-30.95-20.42c-1.77-1.17-2.98-2.96-3.41-5.04
					c-0.43-2.08-0.02-4.21,1.15-5.98l70.04-106.16c2.41-3.66,7.36-4.67,11.02-2.26l30.95,20.42c0.06,0.04,6.41,4.24,12.25,8.57
					c8.95,6.65,12.33,9.97,10.13,13.32l-0.15,0.23l-0.19,0.2l-89.99,95.11C75.84,349.14,73.4,350.3,70.91,350.3z M70.03,343.7
					c0.73,0.48,1.76,0.27,2.24-0.46l0.15-0.23l0.19-0.2l88.57-93.6c-3.01-2.97-11.7-9.32-19.33-14.36l-30.95-20.42
					c-0.73-0.48-1.76-0.27-2.24,0.46L38.62,321.04c-0.32,0.48-0.28,0.97-0.23,1.21c0.05,0.25,0.21,0.71,0.69,1.03L70.03,343.7
					L70.03,343.7z"/>
			</g>
		</g>
	</g>
</g>
<g>
	<g>
		<g>
			<g>
				<path class="st0" d="M104.7,368.57l32.5,17.85c2.31,1.27,5.23,0.42,6.5-1.89l61.23-111.47c1.27-2.31,0.42-5.23-1.89-6.5
					l-32.5-17.85c-2.31-1.27-24.24-13.14-25.5-10.83l-42.23,124.19C101.54,364.38,102.39,367.3,104.7,368.57z"/>
			</g>
		</g>
	</g>
	<g>
		<g>
			<g>
				<path class="st1" d="M139.49,390.18c-1.29,0-2.6-0.32-3.82-0.98l-32.5-17.85c-3.75-2.06-5.18-6.73-3.29-10.52l42.24-124.22
					l0.13-0.24c1.93-3.52,6.45-2.07,16.51,2.74c6.55,3.14,13.23,6.8,13.3,6.84l32.5,17.85c1.86,1.02,3.21,2.71,3.8,4.75
					c0.59,2.04,0.36,4.19-0.66,6.05l-61.23,111.47C145.02,388.68,142.3,390.18,139.49,390.18z M106.22,365.79l32.5,17.85
					c0.5,0.28,0.99,0.2,1.23,0.13c0.24-0.07,0.69-0.26,0.97-0.77l61.23-111.47c0.28-0.5,0.2-0.99,0.13-1.23
					c-0.07-0.24-0.26-0.69-0.77-0.97l-32.5-17.85c-8.02-4.4-17.69-9.12-21.72-10.4l-41.57,122.27l-0.13,0.24
					C105.16,364.36,105.46,365.37,106.22,365.79L106.22,365.79z"/>
			</g>
		</g>
	</g>
</g>
<g>
	<g>
		<g>
			<path class="st0" d="M313.64,147.51c-24.7,37.65-71.09,50.72-113.9,22.63S149.03,92.35,173.73,54.7s66.89-44.46,109.7-16.37
				S338.34,109.86,313.64,147.51z"/>
		</g>
	</g>
	<g>
		<g>
			<path class="st1" d="M247.14,188.45c-16.61,0-33.33-5.29-49.13-15.66c-20.98-13.77-35.08-33.71-39.69-56.15
				c-4.46-21.72,0.07-44.34,12.76-63.68c12.67-19.31,30.04-31.15,50.23-34.23c20.18-3.08,42.26,2.78,63.86,16.95
				c21.67,14.22,36.1,32.48,41.74,52.81c5.68,20.5,2.01,41.51-10.61,60.76c-12.74,19.42-31.25,32.67-52.12,37.32
				C258.53,187.82,252.84,188.45,247.14,188.45z M231.98,24.27c-22.05,0-41.62,10.88-55.6,32.17
				c-11.77,17.93-15.98,38.86-11.86,58.93c4.27,20.78,17.39,39.29,36.96,52.12c19.76,12.97,40.96,17.42,61.31,12.89
				c19.25-4.29,36.37-16.58,48.2-34.61l0,0c11.6-17.68,14.99-36.9,9.8-55.59c-5.22-18.83-18.74-35.84-39.11-49.2
				C264.62,29.78,247.67,24.27,231.98,24.27z"/>
		</g>
	</g>
</g>
<g>
	<g>
		<g>
			<g>
				<path class="st0" d="M283.43,38.33c-42.81-28.09-85-21.27-109.7,16.37c-13.35,20.34-17.17,44.2-11.11,66.27
					c-10.96-2.86-51.79-8.09-90.78,57.01l19.19,12.45c0,0,19.1-16.43,40-28.24c2.05-1.16,4.26,1.26,2.92,3.2l-49.71,71.8
					c-1.37,2.25-0.65,5.21,1.6,6.57l101.81,62.01c2.25,1.37,5.21,0.65,6.57-1.6l36.4-66.43c0.37-0.67,1.39-0.35,1.31,0.41
					c-1.95,18.72-5.73,34.61-5.73,34.61l19.86,11.34c32.92-53.15,22.85-85.51,14.05-99.97c21.41-3.74,40.49-16.76,53.53-36.63
					C338.34,109.86,326.24,66.42,283.43,38.33z"/>
			</g>
		</g>
	</g>
	<g>
		<g>
			<g>
				<path class="st1" d="M190.11,309.64c-1.44,0-2.86-0.39-4.11-1.16L84.19,246.47c-3.74-2.28-4.94-7.18-2.66-10.93l0.1-0.16
					l47.29-68.31c-18.92,11.29-35.66,25.61-35.84,25.76l-1.8,1.55l-23.74-15.4l1.57-2.62c35.52-59.3,72.96-61.83,89.26-59.46
					c-4.48-21.6,0.04-44.64,12.7-63.93c12.67-19.31,30.04-31.15,50.23-34.23c20.18-3.08,42.26,2.78,63.86,16.95
					c21.67,14.22,36.1,32.48,41.74,52.81c5.68,20.5,2.01,41.51-10.61,60.76c-12.64,19.27-30.74,32.33-51.31,37.13
					c8.44,16.66,14.9,49.15-16.22,99.4l-1.61,2.6l-24.58-14.03l0.55-2.31c0.03-0.12,2.14-9.08,4-21.3l-30.19,55.08
					c-1.1,1.81-2.85,3.08-4.92,3.59C191.38,309.56,190.74,309.64,190.11,309.64z M86.91,238.89c-0.41,0.74-0.16,1.72,0.57,2.16
					l101.81,62.01c0.49,0.3,0.97,0.24,1.22,0.19c0.24-0.06,0.67-0.22,0.97-0.68l36.36-66.35c0.9-1.63,2.76-2.39,4.54-1.83
					c1.78,0.56,2.89,2.24,2.69,4.09c-1.52,14.55-4.16,27.56-5.28,32.69l15.16,8.65c30.06-50.06,20.78-80.34,12.44-94.04l-2.41-3.97
					l4.58-0.8c20.61-3.6,38.87-16.12,51.43-35.25c11.6-17.68,14.99-36.9,9.8-55.59c-5.22-18.83-18.74-35.84-39.11-49.2
					c-41.04-26.92-81.39-21-105.31,15.46c-12.81,19.53-16.62,42.15-10.71,63.69l1.45,5.29l-5.31-1.38
					c-10.8-2.82-48.53-7.17-85.68,52.96l14.64,9.5c5.29-4.39,21.25-17.2,38.69-27.07c2.2-1.24,4.93-0.81,6.63,1.06
					c1.7,1.87,1.89,4.62,0.45,6.7L86.91,238.89z"/>
			</g>
		</g>
	</g>
</g>
<g>
	<g>
		<g>
			<g>
				<g>
					<path class="st2" d="M312.96,110.46c10.44-10,18.16-23.33,18.16-23.33c-5.11-3.93-14.93-6.72-22.46-7.97
						c-5.34-0.89-13.33-1.23-16.41-5.69c-5.16-7.48-11.96-14.04-20.26-19.09c-8.29-5.05-17.23-8.08-26.24-9.24
						c-5.41-0.7-6.9-6.11-10.13-10.5c-5.12-6.97-13.23-15.97-19.23-18.79c0,0-5.38,12.79-8.66,25.22
						c-1.79,6.78-5.63,12.88-10.83,17.58c-4.5,4.06-8.48,8.82-11.79,14.25c-18.67,30.65-3.35,63.78,27.8,82.76
						s66.36,16.62,85.03-14.03c2.59-4.25,3.77-7.68,4.35-11.12C303.58,122.88,307.36,115.84,312.96,110.46z"/>
				</g>
			</g>
		</g>
		<g>
			<g>
				<g>
					<path class="st1" d="M211.88,157.35c-16.02-9.76-27.86-23.22-33.32-37.89c-5.95-15.98-4.23-32.42,4.97-47.53
						c3.35-5.49,7.45-10.45,12.18-14.72c5.01-4.52,8.53-10.24,10.2-16.53c3.28-12.43,8.7-25.37,8.76-25.5l0.82-1.95l1.78,0.83
						c6.41,3.01,14.72,12.3,19.89,19.33c0.88,1.2,1.63,2.45,2.34,3.65c1.92,3.21,3.43,5.75,6.61,6.16
						c9.56,1.23,18.61,4.42,26.92,9.48c8.31,5.06,15.3,11.65,20.78,19.58c2.16,3.13,7.89,3.92,12.5,4.56
						c0.98,0.14,1.9,0.26,2.77,0.41c7.66,1.27,17.79,4.12,23.23,8.3l1.29,0.99l-0.88,1.52c-0.32,0.55-8,13.71-18.53,23.8
						c-5.28,5.06-8.85,11.75-10.04,18.84c-0.69,4.08-2.12,7.74-4.63,11.88c-9.23,15.16-22.82,24.36-39.29,26.6
						C244.99,171.26,227.81,167.05,211.88,157.35z M217.27,18.61c-1.64,4.1-5.28,13.63-7.72,22.85c-1.88,7.1-5.84,13.54-11.47,18.62
						c-4.43,4-8.27,8.63-11.4,13.77c-8.51,13.98-10.1,29.19-4.59,43.99c5.18,13.93,16.5,26.75,31.86,36.11
						c15.26,9.29,31.61,13.33,46.04,11.36c15.24-2.08,27.82-10.6,36.37-24.65c2.22-3.65,3.48-6.84,4.07-10.37
						c1.34-7.98,5.36-15.52,11.3-21.21l1.23,1.39l-1.23-1.39c8.02-7.69,14.48-17.51,16.84-21.29c-5.23-3.29-14-5.64-20.33-6.69
						c-0.83-0.14-1.73-0.26-2.68-0.39c-5.28-0.73-11.85-1.64-14.87-6.02c-5.2-7.53-11.84-13.78-19.73-18.59
						c-7.89-4.81-16.5-7.84-25.56-9c-4.85-0.62-7.03-4.28-9.14-7.83c-0.68-1.13-1.37-2.3-2.16-3.37
						C229.33,29.4,222.55,21.93,217.27,18.61z"/>
				</g>
			</g>
		</g>
	</g>
	<g>
		<g>
			<g>
				<g>
					<path class="st3" d="M306.37,119c1.76-3.13,3.97-6.02,6.59-8.53c10.44-10,18.16-23.33,18.16-23.33
						c-5.11-3.93-14.93-6.72-22.46-7.97c-4.08-0.68-9.7-1.04-13.5-3.16c-1.18-0.66-2.18-1.48-2.91-2.53
						c-2.2-3.19-4.71-6.21-7.49-9.02c-9.61,14.72-24.94,48.56,14.93,74.01c1.42-2.87,2.18-5.42,2.61-7.97
						C302.98,126.44,304.37,122.56,306.37,119z"/>
				</g>
			</g>
		</g>
	</g>
	<g>
		<g>
			<g>
				<g>
					<path class="st1" d="M211.88,157.35c-16.02-9.76-27.86-23.22-33.32-37.89c-5.95-15.98-4.23-32.42,4.97-47.53
						c3.35-5.49,7.45-10.45,12.18-14.72c5.01-4.52,8.53-10.24,10.2-16.53c3.28-12.43,8.7-25.37,8.76-25.5l0.82-1.95l1.78,0.83
						c6.41,3.01,14.72,12.3,19.89,19.33c0.88,1.2,1.63,2.45,2.34,3.65c1.92,3.21,3.43,5.75,6.61,6.16
						c9.56,1.23,18.61,4.42,26.92,9.48c8.31,5.06,15.3,11.65,20.78,19.58c2.16,3.13,7.89,3.92,12.5,4.56
						c0.98,0.14,1.9,0.26,2.77,0.41c7.66,1.27,17.79,4.12,23.23,8.3l1.29,0.99l-0.88,1.52c-0.32,0.55-8,13.71-18.53,23.8
						c-5.28,5.06-8.85,11.75-10.04,18.84c-0.69,4.08-2.12,7.74-4.63,11.88c-9.23,15.16-22.82,24.36-39.29,26.6
						C244.99,171.26,227.81,167.05,211.88,157.35z M217.27,18.61c-1.64,4.1-5.28,13.63-7.72,22.85c-1.88,7.1-5.84,13.54-11.47,18.62
						c-4.43,4-8.27,8.63-11.4,13.77c-8.51,13.98-14.35,31.57-4.59,43.99c11.66,14.85,16.18,18.71,33.73,29.8
						c20.36,12.86,26.35,16.65,44.17,17.67c15.35,0.88,27.82-10.6,36.37-24.65c2.22-3.65,3.48-6.84,4.07-10.37
						c1.34-7.98,5.36-15.52,11.3-21.21l1.23,1.39l-1.23-1.39c8.02-7.69,14.48-17.51,16.84-21.29c-5.23-3.29-14-5.64-20.33-6.69
						c-0.83-0.14-1.73-0.26-2.68-0.39c-5.28-0.73-11.85-1.64-14.87-6.02c-5.2-7.53-11.84-13.78-19.73-18.59
						c-7.89-4.81-16.5-7.84-25.56-9c-4.85-0.62-7.03-4.28-9.14-7.83c-0.68-1.13-1.37-2.3-2.16-3.37
						C229.33,29.4,222.55,21.93,217.27,18.61z"/>
				</g>
			</g>
		</g>
	</g>
	<g>
		<g>
			<g>
				<g>
					<g>
						<path class="st1" d="M218.43,30.53c0.07,0.15,0.13,0.31,0.19,0.46c0.01,0.04,0.17,0.48,0.08,0.22
							c0.11,0.32,0.2,0.65,0.29,0.97c0.18,0.65,0.33,1.32,0.5,1.97c0.35,1.39,0.81,2.74,1.22,4.11c0.41,1.36,0.75,2.74,1.01,4.15
							c0.13,0.7,0.25,1.41,0.34,2.12c0.01,0.06,0.05,0.5,0.04,0.35c-0.01-0.15,0.02,0.29,0.02,0.35c0.03,0.45,0.06,0.9,0.13,1.34
							c0.14,0.9,1.14,1.51,2.01,1.22c0.92-0.31,1.47-1.21,1.32-2.17c-0.03-0.16-0.05-0.32-0.06-0.48c0.03,0.32-0.01-0.23-0.02-0.29
							c-0.03-0.42-0.05-0.85-0.1-1.26c-0.1-0.74-0.22-1.47-0.36-2.2c-0.26-1.44-0.62-2.84-1.04-4.23c-0.41-1.36-0.86-2.72-1.21-4.1
							c-0.37-1.46-0.71-2.92-1.29-4.29c-0.35-0.82-1.5-1.13-2.28-0.63C218.36,28.66,218.06,29.66,218.43,30.53L218.43,30.53z"/>
					</g>
				</g>
			</g>
		</g>
	</g>
	<g>
		<g>
			<g>
				<g>
					<g>
						<path class="st1" d="M317.95,87.52c-1.49,0.11-2.94,0.48-4.4,0.82c-1.39,0.33-2.8,0.55-4.2,0.81
							c-1.42,0.26-2.84,0.59-4.23,1.01c-0.68,0.21-1.37,0.42-2.05,0.67c-0.4,0.14-0.78,0.31-1.17,0.48c-0.1,0.04-0.2,0.09-0.3,0.13
							c-0.17,0.07-0.2,0.09-0.1,0.04c0.1-0.05,0.07-0.03-0.1,0.04c-0.1,0.04-0.2,0.07-0.31,0.11c-0.86,0.29-1.55,1.24-1.32,2.17
							c0.22,0.87,1.09,1.53,2.01,1.22c0.4-0.13,0.78-0.3,1.17-0.47c0.15-0.07,0.3-0.13,0.45-0.2c-0.3,0.13,0.14-0.05,0.2-0.08
							c0.67-0.25,1.35-0.46,2.03-0.67c1.4-0.43,2.81-0.77,4.23-1.03c1.38-0.26,2.76-0.47,4.13-0.78c0.66-0.15,1.32-0.32,1.98-0.47
							c0.33-0.07,0.66-0.14,1-0.2c0.12-0.02,0.11-0.02-0.02,0c0.08-0.01,0.17-0.02,0.25-0.03c0.19-0.02,0.39-0.04,0.58-0.05
							c0.89-0.06,1.78-0.8,1.79-1.79C319.56,88.34,318.9,87.45,317.95,87.52L317.95,87.52z"/>
					</g>
				</g>
			</g>
		</g>
	</g>
	<g>
		<g>
			<g>
				<g>
					
						<ellipse transform="matrix(0.5202 -0.854 0.854 0.5202 36.9152 232.1083)" class="st1" cx="225.03" cy="83.2" rx="5.95" ry="5.51"/>
				</g>
			</g>
		</g>
	</g>
	<g>
		<g>
			<g>
				<g>
					
						<ellipse transform="matrix(0.5202 -0.854 0.854 0.5202 35.2325 279.8473)" class="st1" cx="266.68" cy="108.57" rx="5.95" ry="5.51"/>
				</g>
			</g>
		</g>
	</g>
	<g>
		<g>
			<g>
				<g>
					<path class="st1" d="M238.22,119.77c-0.93,1.53-5.32,4.51-7.75,3.03c-2.44-1.48-2-6.87-1.07-8.4c0.93-1.53,3.66-1.57,6.1-0.08
						C237.94,115.8,239.16,118.24,238.22,119.77z"/>
				</g>
			</g>
		</g>
	</g>
	<g>
		<g>
			<g>
				<g>
					
						<rect x="223.01" y="122.17" transform="matrix(0.5202 -0.854 0.854 0.5202 4.2382 255.5791)" class="st1" width="13.16" height="3.69"/>
				</g>
			</g>
		</g>
	</g>
	<g>
		<g>
			<g>
				<g>
					<path class="st1" d="M220.28,129.03c-3.86-2.35-5.65-6.64-6.09-9.29c-0.18-1.05,0.51-2.11,1.54-2.36
						c1.03-0.25,2,0.39,2.18,1.43c0.06,0.35,1.5,8.01,8.92,7.98c1.04,0,1.83,0.87,1.76,1.95c-0.07,1.08-0.96,1.96-2,1.96
						C224.05,130.71,221.97,130.05,220.28,129.03z"/>
				</g>
			</g>
		</g>
	</g>
	<g>
		<g>
			<g>
				<g>
					<path class="st1" d="M229.4,134.58c-1.69-1.03-3.22-2.57-4.38-4.83c-0.47-0.93-0.1-2.13,0.82-2.68
						c0.93-0.56,2.06-0.25,2.54,0.67c3.41,6.67,10.86,4.36,11.18,4.26c1.01-0.32,2.03,0.25,2.28,1.28c0.24,1.03-0.38,2.13-1.39,2.45
						C237.89,136.55,233.26,136.93,229.4,134.58z"/>
				</g>
			</g>
		</g>
	</g>
	<g>
		<g>
			<g>
				<g>
					<path class="st1" d="M205.97,99.62c-0.06-0.04-0.12-0.08-0.18-0.13l-9.82-8.83c-0.53-0.48-0.56-1.34-0.06-1.92
						c0.5-0.58,1.33-0.67,1.87-0.19l9.82,8.83c0.53,0.48,0.56,1.34,0.06,1.92C207.21,99.82,206.5,99.94,205.97,99.62z"/>
				</g>
			</g>
		</g>
	</g>
	<g>
		<g>
			<g>
				<g>
					<path class="st1" d="M190.58,99.82c-0.54-0.33-0.75-1.04-0.47-1.69c0.31-0.7,1.1-1.05,1.76-0.78l12.19,5.04
						c0.66,0.28,0.94,1.07,0.64,1.77c-0.31,0.7-1.1,1.05-1.76,0.78l-12.19-5.04C190.69,99.88,190.63,99.85,190.58,99.82z"/>
				</g>
			</g>
		</g>
	</g>
	<g>
		<g>
			<g>
				<g>
					<path class="st1" d="M186.3,109.99c-0.38-0.23-0.62-0.67-0.59-1.18c0.04-0.76,0.67-1.37,1.4-1.38l13.44-0.14
						c0.73-0.01,1.28,0.6,1.24,1.35c-0.04,0.76-0.67,1.37-1.4,1.38l-13.44,0.14C186.71,110.17,186.49,110.1,186.3,109.99z"/>
				</g>
			</g>
		</g>
	</g>
	<g>
		<g>
			<g>
				<g>
					<path class="st1" d="M265.88,136.11c-0.53-0.32-0.74-1.01-0.48-1.65c0.29-0.71,1.07-1.08,1.74-0.83l12.35,4.68
						c0.67,0.25,0.97,1.04,0.68,1.75c-0.29,0.71-1.07,1.08-1.74,0.83l-12.35-4.68C266.01,136.18,265.94,136.15,265.88,136.11z"/>
				</g>
			</g>
		</g>
	</g>
	<g>
		<g>
			<g>
				<g>
					<path class="st1" d="M272.76,149.88c-0.05-0.03-0.1-0.07-0.15-0.11l-10.07-8.52c-0.55-0.46-0.6-1.32-0.11-1.92
						s1.32-0.71,1.86-0.25l10.07,8.52c0.55,0.46,0.6,1.32,0.11,1.92C274.03,150.06,273.3,150.2,272.76,149.88z"/>
				</g>
			</g>
		</g>
	</g>
	<g>
		<g>
			<g>
				<g>
					<path class="st1" d="M265.69,158.35c-0.19-0.11-0.35-0.28-0.45-0.5l-6.04-12.01c-0.33-0.65-0.06-1.49,0.59-1.87
						c0.65-0.38,1.45-0.17,1.77,0.48l6.04,12.01c0.33,0.65,0.06,1.49-0.59,1.87C266.58,158.59,266.07,158.58,265.69,158.35z"/>
				</g>
			</g>
		</g>
	</g>
</g>
<g>
	<g>
		<g>
			<path class="st1" d="M231.98,241.17c-0.15,0-0.3-0.01-0.45-0.03c-1.73-0.25-2.94-1.85-2.69-3.58
				c1.94-13.57,1.47-17.25-7.86-25.47c-1.31-1.16-1.44-3.16-0.28-4.47c1.16-1.31,3.16-1.44,4.47-0.28
				c11.11,9.78,12.15,15.73,9.95,31.13C234.88,240.03,233.53,241.17,231.98,241.17z"/>
		</g>
	</g>
</g>
<g>
	<g>
		<g>
			<path class="st1" d="M90.75,195.4l-23.98-14.64c-1.36-0.83-1.79-2.62-0.96-3.98l1.3-2.13c0.83-1.36,2.62-1.79,3.98-0.96
				l23.98,14.64c1.36,0.83,1.79,2.62,0.96,3.98l-1.3,2.13C93.9,195.8,92.11,196.23,90.75,195.4z"/>
		</g>
	</g>
</g>
<g>
	<g>
		<g>
			<g>
				<path class="st1" d="M68.34,353.45l-38.36-28.51c-2.01-1.49-2.43-4.36-0.94-6.37l2.34-3.14c1.49-2.01,4.36-2.43,6.37-0.94
					l38.36,28.51c2.01,1.49,2.43,4.36,0.94,6.37l-2.34,3.14C73.21,354.52,70.35,354.94,68.34,353.45z"/>
			</g>
		</g>
	</g>
</g>
<g>
	<g>
		<g>
			<g>
				<path class="st1" d="M139.91,394.71l-43.26-20.32c-2.27-1.07-3.25-3.79-2.19-6.06l1.67-3.55c1.07-2.27,3.79-3.25,6.06-2.19
					l43.26,20.32c2.27,1.07,3.25,3.79,2.19,6.06l-1.67,3.55C144.91,394.79,142.18,395.78,139.91,394.71z"/>
			</g>
		</g>
	</g>
</g>
<g>
	<g>
		<g>
			<path class="st1" d="M246.42,288.4l-24.94-11.43c-1.61-0.74-2.33-2.67-1.59-4.28l1.16-2.52c0.74-1.61,2.67-2.33,4.28-1.59
				l24.94,11.43c1.61,0.74,2.33,2.67,1.59,4.28l-1.16,2.52C249.95,288.43,248.03,289.14,246.42,288.4z"/>
		</g>
	</g>
</g>
<g>
	<g>
		<g>
			<path class="st5" d="M167.77,220.7l-27.13-16.52c-5.64-3.43-7.44-10.85-4.01-16.49l11.25-18.47c3.43-5.64,10.85-7.44,16.49-4.01
				l27.13,16.52c5.64,3.43,7.44,10.85,4.01,16.49l-11.25,18.47C180.82,222.33,173.4,224.14,167.77,220.7z"/>
		</g>
	</g>
</g>
<g>
	<g>
		<g>
			<circle class="st6" cx="210.34" cy="202.55" r="5.14"/>
		</g>
	</g>
</g>
<g>
	<g>
		<g>
			<circle class="st7" cx="201.24" cy="216.79" r="5.14"/>
		</g>
	</g>
</g>
<g>
	<g>
		<g>
			<g>
				<circle class="st8" cx="140.46" cy="270.64" r="15.21"/>
			</g>
		</g>
	</g>
	<g>
		<g>
			<g>
				<path class="st1" d="M140.48,289.01c-0.61,0-1.22-0.03-1.84-0.09c-4.88-0.49-9.29-2.85-12.39-6.65
					c-3.11-3.8-4.55-8.58-4.06-13.47c0.49-4.88,2.85-9.29,6.65-12.39c3.8-3.11,8.58-4.55,13.47-4.06c4.88,0.49,9.29,2.85,12.39,6.65
					c3.11,3.8,4.55,8.58,4.06,13.47l0,0C157.8,281.93,149.79,289.01,140.48,289.01z M140.44,258.6c-2.77,0-5.43,0.95-7.6,2.72
					c-2.49,2.04-4.04,4.92-4.36,8.12c-0.32,3.2,0.62,6.33,2.66,8.82c2.04,2.49,4.92,4.04,8.12,4.36
					c6.61,0.66,12.52-4.17,13.18-10.78c0.32-3.2-0.62-6.33-2.66-8.82c-2.04-2.49-4.92-4.04-8.12-4.36
					C141.25,258.62,140.85,258.6,140.44,258.6z M155.6,272.15L155.6,272.15L155.6,272.15z"/>
			</g>
		</g>
	</g>
</g>
<g>
	<g>
		<g>
			<g>
				<path class="st1" d="M133.53,260.38c-0.6,0-1.2-0.17-1.73-0.52l-42.43-27.81c-1.46-0.96-1.87-2.92-0.91-4.39
					c0.96-1.46,2.92-1.87,4.39-0.91l42.43,27.81c1.46,0.96,1.87,2.92,0.91,4.39C135.57,259.87,134.56,260.38,133.53,260.38z"/>
			</g>
		</g>
	</g>
</g>
<g>
	<g>
		<g>
			<g>
				<path class="st1" d="M200.11,295.06c-0.43,0-0.86-0.09-1.28-0.27l-44.51-19.74c-1.6-0.71-2.32-2.58-1.61-4.18
					c0.71-1.6,2.58-2.32,4.18-1.61l44.51,19.74c1.6,0.71,2.32,2.58,1.61,4.18C202.48,294.36,201.32,295.06,200.11,295.06z"/>
			</g>
		</g>
	</g>
</g>
<g>
	<g>
		<g>
			<g>
				<path class="st1" d="M93.8,250.03c-0.66,0-1.32-0.2-1.89-0.63c-1.4-1.05-1.69-3.03-0.65-4.43l6.62-8.89
					c1.05-1.4,3.03-1.69,4.43-0.65c1.4,1.05,1.69,3.03,0.65,4.43l-6.62,8.89C95.73,249.59,94.77,250.03,93.8,250.03z"/>
			</g>
		</g>
	</g>
</g>
<g>
	<g>
		<g>
			<g>
				<path class="st1" d="M111.12,260.49c-0.68,0-1.36-0.22-1.93-0.66c-1.39-1.07-1.64-3.06-0.57-4.44l6.71-8.69
					c1.07-1.39,3.06-1.64,4.44-0.57c1.39,1.07,1.64,3.06,0.57,4.44l-6.71,8.69C113.01,260.06,112.07,260.49,111.12,260.49z"/>
			</g>
		</g>
	</g>
</g>
<g>
	<g>
		<g>
			<g>
				<path class="st1" d="M165.43,291.59c-0.48,0-0.97-0.11-1.42-0.34c-1.56-0.79-2.19-2.69-1.4-4.26l3.97-7.88
					c0.79-1.56,2.69-2.19,4.26-1.4c1.56,0.79,2.19,2.69,1.4,4.26l-3.97,7.88C167.7,290.95,166.59,291.59,165.43,291.59z"/>
			</g>
		</g>
	</g>
</g>
<g>
	<g>
		<g>
			<g>
				<path class="st1" d="M179.74,301.3c-0.42,0-0.84-0.08-1.25-0.26c-1.61-0.69-2.35-2.55-1.66-4.16l4.98-11.6
					c0.69-1.61,2.55-2.35,4.16-1.66c1.61,0.69,2.35,2.55,1.66,4.16l-4.98,11.6C182.14,300.58,180.97,301.3,179.74,301.3z"/>
			</g>
		</g>
	</g>
</g>
<g>
	<g>
		<g>
			<g>
				<path class="st1" d="M64.92,340.76c-0.56,0-1.13-0.19-1.6-0.57c-1.09-0.88-1.25-2.48-0.36-3.57l25.41-31.21
					c0.88-1.09,2.48-1.25,3.57-0.37c1.09,0.88,1.25,2.48,0.36,3.57l-25.41,31.21C66.39,340.44,65.66,340.76,64.92,340.76z"/>
			</g>
		</g>
	</g>
</g>
<g>
	<g>
		<g>
			<g>
				<path class="st1" d="M131.32,313.65c-0.46,0-0.93-0.13-1.35-0.39l-5.99-3.78c-1.18-0.75-1.54-2.31-0.79-3.5
					c0.75-1.18,2.31-1.54,3.5-0.79l5.99,3.78c1.18,0.75,1.54,2.31,0.79,3.5C132.98,313.23,132.16,313.65,131.32,313.65z"/>
			</g>
		</g>
	</g>
</g>
<g>
	<g>
		<g>
			<g>
				<path class="st1" d="M127.53,326.01c-0.52,0-1.04-0.16-1.49-0.48l-7.12-5.17c-1.13-0.82-1.38-2.41-0.56-3.54
					c0.82-1.13,2.41-1.38,3.54-0.56l7.12,5.17c1.13,0.82,1.38,2.41,0.56,3.54C129.09,325.65,128.32,326.01,127.53,326.01z"/>
			</g>
		</g>
	</g>
</g>
</svg>
