<?xml version="1.0" encoding="utf-8"?>
<!-- Generator: Adobe Illustrator 25.0.0, SVG Export Plug-In . SVG Version: 6.00 Build 0)  -->
<svg version="1.1" id="圖層_1" xmlns="http://www.w3.org/2000/svg" xmlns:xlink="http://www.w3.org/1999/xlink" x="0px" y="0px"
	 viewBox="0 0 60 70" style="enable-background:new 0 0 60 70;" xml:space="preserve">
<style type="text/css">
	.st0{fill:#FFFFFF;}
	.st1{fill:#424146;}
	.st2{fill:#FFD071;}
	.st3{fill:#FFAB15;}
	.st4{fill:#246CFC;}
	.st5{fill:#FF0855;}
	.st6{fill:#FFC840;}
	.st7{fill:#FCFC00;}
</style>
<g>
	<g>
		<g>
			<path class="st0" d="M16.7,31.9c-0.7,0.9-1.8,0.8-2.6,0.1c-0.8-0.8-0.9-1.8-0.2-2.6c0.7-0.9,1.5-0.7,2.4,0.1
				C17.1,30.2,17.4,31.1,16.7,31.9z"/>
		</g>
	</g>
	<g>
		<g>
			<path class="st1" d="M15.4,32.9c-0.5,0-1.1-0.2-1.6-0.7c-1-0.9-1.1-2.1-0.3-3.1c0.4-0.5,1.4-1.2,2.8,0.1c0.5,0.5,0.8,0.9,0.9,1.4
				c0.1,0.5,0,1-0.4,1.5l0,0C16.5,32.6,16,32.9,15.4,32.9C15.4,32.9,15.4,32.9,15.4,32.9z M14.9,29.1c-0.4,0-0.7,0.3-0.8,0.4
				c-0.6,0.7-0.5,1.5,0.2,2.2c0.4,0.3,0.8,0.5,1.2,0.5c0,0,0,0,0,0c0.4,0,0.8-0.2,1-0.5l0,0c0.3-0.3,0.4-0.7,0.3-1
				c-0.1-0.3-0.3-0.7-0.7-1C15.6,29.2,15.2,29.1,14.9,29.1z"/>
		</g>
	</g>
</g>
<g>
	<g>
		<g>
			<path class="st0" d="M40.5,47.2c-0.7,1-1.3,1.1-2.2,0.7c-0.9-0.4-1.2-1.5-0.7-2.6c0.4-1,1.1-1,2.2-0.5
				C40.8,45.3,41.2,46.3,40.5,47.2z"/>
		</g>
	</g>
	<g>
		<g>
			<path class="st1" d="M39.2,48.4c-0.3,0-0.6-0.1-1-0.2c-0.5-0.2-0.8-0.6-1-1c-0.2-0.6-0.2-1.3,0.1-2c0.2-0.6,0.6-0.9,1.1-1
				c0.4-0.1,0.8,0,1.5,0.3c0.6,0.3,1.1,0.8,1.2,1.3c0.1,0.5,0,1-0.3,1.5l0,0C40.3,48.1,39.8,48.4,39.2,48.4z M38.6,44.8
				c0,0-0.1,0-0.1,0c-0.2,0-0.4,0.1-0.6,0.6c-0.2,0.5-0.2,1.1-0.1,1.5c0.1,0.3,0.3,0.5,0.7,0.7c0.8,0.4,1.3,0.2,1.9-0.6l0,0
				c0.2-0.3,0.3-0.7,0.2-1c-0.1-0.4-0.4-0.7-0.9-0.9C39.2,44.9,38.9,44.8,38.6,44.8z"/>
		</g>
	</g>
</g>
<g>
	<g>
		<g>
			<g>
				<path class="st0" d="M8.4,53.6c0,0-0.4,1.3-2,1.2c-0.7-0.1-1.2,0.2-1.4,0.8c-0.2,0.6-0.8,1.2,1.8,2.8c1.3,0.7,3.3,1.7,5.1,0
					c1-1.2,1.4-1.8,1.4-1.8l-4.7-3.4L8.4,53.6z"/>
			</g>
		</g>
	</g>
	<g>
		<g>
			<g>
				<path class="st1" d="M9.7,59.7c-1.2,0-2.2-0.5-3-0.9l-0.1-0.1c-2.4-1.4-2.3-2.3-2-3.1c0-0.1,0-0.1,0.1-0.2l0-0.1
					c0.3-0.7,1-1.1,1.8-1C7.7,54.4,8,53.5,8,53.4l0.3-1l5.5,4l-0.2,0.3c0,0-0.4,0.6-1.4,1.8l0,0C11.3,59.4,10.5,59.7,9.7,59.7z
					 M6.9,58L6.9,58c1.4,0.7,3.1,1.6,4.7,0.1c0.5-0.6,0.9-1.1,1.1-1.4l-4-2.9c-0.2,0.6-0.9,1.4-2.3,1.3l0,0c-0.5-0.1-0.9,0.1-1,0.5
					c0,0.1,0,0.1-0.1,0.2C5.1,56.2,4.9,56.7,6.9,58z"/>
			</g>
		</g>
	</g>
</g>
<g>
	<g>
		<path class="st1" d="M5.4,57.4c-0.1,0-0.2-0.1-0.3-0.2C5,57.1,5,56.8,5.2,56.7c0,0,0.1-0.1,0.1-0.1c0.3-0.3,0.8-0.9,2.4-0.6
			C7.9,56,8,56.2,8,56.5c0,0.2-0.2,0.4-0.5,0.3c-1.1-0.2-1.4,0.1-1.6,0.3c-0.1,0.1-0.1,0.1-0.2,0.2C5.6,57.4,5.5,57.4,5.4,57.4z"/>
	</g>
</g>
<g>
	<g>
		<path class="st1" d="M6.6,58.7c0,0-0.1,0-0.1,0c-0.1-0.1-0.2-0.3-0.1-0.4c0.3-0.8,1-1.1,2-0.8c0.2,0,0.3,0.2,0.2,0.4
			c0,0.2-0.2,0.3-0.4,0.2c-1-0.3-1.2,0.3-1.3,0.5C6.8,58.6,6.7,58.7,6.6,58.7z"/>
	</g>
</g>
<g>
	<g>
		<g>
			<g>
				<path class="st0" d="M24.3,63.2c0,0-0.8,1,0.1,2.4c0.4,0.6,0.4,1.2,0.1,1.7c-0.4,0.4-0.6,1.3-3.2-0.2c-1.2-0.9-3.1-2.1-2.7-4.7
					c0.4-1.5,0.7-2.2,0.7-2.2l5.2,2.5L24.3,63.2z"/>
			</g>
		</g>
	</g>
	<g>
		<g>
			<g>
				<path class="st1" d="M23.5,68.4c-0.5,0-1.3-0.2-2.4-0.9l0,0L21,67.4c-1.2-0.9-3.2-2.3-2.7-5l0,0c0.4-1.5,0.7-2.2,0.7-2.2
					l0.2-0.4l6.1,2.9l-0.6,0.7c-0.1,0.1-0.6,0.8,0.1,1.9c0.5,0.7,0.5,1.5,0.1,2.2l0,0c0,0-0.1,0.1-0.1,0.1
					C24.4,68.1,24.1,68.4,23.5,68.4z M21.5,66.8c2,1.2,2.3,0.7,2.5,0.4c0-0.1,0.1-0.1,0.1-0.2c0.2-0.4,0.2-0.8-0.1-1.2l0,0
					c-0.5-0.9-0.5-1.6-0.4-2.1c0.1-0.4,0.2-0.6,0.3-0.8l-4.4-2.1c-0.1,0.3-0.3,0.9-0.5,1.7C18.6,64.8,20.2,65.9,21.5,66.8L21.5,66.8
					z M24.6,63.5L24.6,63.5z"/>
			</g>
		</g>
	</g>
</g>
<g>
	<g>
		<g>
			<g>
				<path class="st1" d="M23,68.1C23,68.1,23,68.1,23,68.1c-0.3,0-0.4-0.2-0.4-0.5c0-0.1,0-0.2,0.1-0.3c0.1-0.4,0.2-0.8-0.6-1.7
					c-0.1-0.2-0.1-0.4,0-0.6s0.4-0.1,0.5,0c1.1,1.2,0.9,2,0.7,2.4c0,0.1,0,0.1,0,0.2C23.4,67.9,23.2,68.1,23,68.1z"/>
			</g>
		</g>
	</g>
</g>
<g>
	<g>
		<g>
			<g>
				<path class="st1" d="M21.3,67.6c-0.1,0-0.1,0-0.2-0.1c-0.1-0.1-0.2-0.3-0.1-0.4c0.1-0.2,0.4-0.7-0.3-1.4c-0.1-0.1-0.1-0.3,0-0.4
					c0.1-0.1,0.3-0.1,0.4,0c0.7,0.7,0.8,1.5,0.4,2.2C21.5,67.5,21.4,67.6,21.3,67.6z"/>
			</g>
		</g>
	</g>
</g>
<g>
	<g>
		<g>
			<path class="st0" d="M40.9,46.4l-3-1.8c0,0,3-13.3-1.1-15.1l5.2-0.8C42,28.7,48.1,34.2,40.9,46.4z"/>
		</g>
	</g>
	<g>
		<g>
			<path class="st1" d="M41.1,47.1l-3.8-2.3l0.1-0.4c0.8-3.6,2.2-13.2-0.8-14.5l-1.6-0.7l7.2-1.1l0.2,0.1c0.1,0.1,1.7,1.5,2.3,4.5
				c0.6,2.7,0.5,7.4-3.3,13.9L41.1,47.1z M38.4,44.3l2.3,1.4c2.7-4.7,3.7-9,2.9-12.6c-0.3-1.4-0.8-2.5-1.2-3.1
				c-0.3-0.4-0.5-0.7-0.6-0.8L38,29.8c1.1,1.4,1.6,4,1.3,7.9C39.1,40.6,38.6,43.4,38.4,44.3z"/>
		</g>
	</g>
</g>
<g>
	<g>
		<g>
			<g>
				<path class="st0" d="M13.6,56.6l-4.8-3.3c-0.3-0.2-0.4-0.7-0.2-1.1l10.8-17.3c0.2-0.4,0.7-0.5,1-0.2l4.8,3.3
					c0.3,0.2,3.5,2.5,3.3,2.9L14.6,56.4C14.4,56.7,13.9,56.8,13.6,56.6z"/>
			</g>
		</g>
	</g>
	<g>
		<g>
			<g>
				<path class="st1" d="M14,57.2c-0.2,0-0.5-0.1-0.7-0.2l0,0l-4.8-3.3c-0.3-0.2-0.5-0.5-0.5-0.8c-0.1-0.3,0-0.7,0.2-1L19,34.6
					c0.4-0.6,1.1-0.8,1.7-0.4l4.8,3.3c0,0,1,0.7,1.9,1.4c1.4,1.1,1.9,1.6,1.6,2.2l0,0l0,0L15,56.7C14.8,57,14.4,57.2,14,57.2z
					 M13.9,56.1c0.1,0.1,0.3,0,0.3-0.1l0,0l0,0l13.6-15.2c-0.5-0.5-1.8-1.5-3-2.3l-4.8-3.3c-0.1-0.1-0.3,0-0.3,0.1L9.1,52.5
					c0,0.1,0,0.2,0,0.2c0,0,0,0.1,0.1,0.2L13.9,56.1L13.9,56.1z"/>
			</g>
		</g>
	</g>
</g>
<g>
	<g>
		<g>
			<g>
				<path class="st0" d="M19.2,60.2l5,2.9c0.4,0.2,0.8,0.1,1-0.3l9.4-18.2c0.2-0.4,0.1-0.9-0.3-1.1l-5-2.9c-0.4-0.2-3.7-2.1-3.9-1.8
					l-6.5,20.2C18.7,59.5,18.8,60,19.2,60.2z"/>
			</g>
		</g>
	</g>
	<g>
		<g>
			<g>
				<path class="st1" d="M24.5,63.7c-0.2,0-0.4-0.1-0.6-0.2l-5-2.9c-0.6-0.3-0.8-1.1-0.5-1.7l6.5-20.2l0,0c0.3-0.6,1-0.3,2.5,0.4
					c1,0.5,2,1.1,2,1.1l5,2.9c0.3,0.2,0.5,0.4,0.6,0.8c0.1,0.3,0.1,0.7-0.1,1L25.6,63C25.4,63.5,25,63.7,24.5,63.7z M19.4,59.7
					l5,2.9c0.1,0,0.2,0,0.2,0c0,0,0.1,0,0.1-0.1l9.4-18.2c0-0.1,0-0.2,0-0.2c0,0,0-0.1-0.1-0.2l-5-2.9c-1.2-0.7-2.7-1.5-3.3-1.7
					l-6.4,19.9l0,0C19.3,59.5,19.3,59.7,19.4,59.7L19.4,59.7z"/>
			</g>
		</g>
	</g>
</g>
<g>
	<g>
		<g>
			<path class="st0" d="M51.3,24.2c-3.8,6.1-10.9,8.3-17.5,3.7s-7.8-12.7-4-18.8s10.3-7.2,16.8-2.7S55.1,18.1,51.3,24.2z"/>
		</g>
	</g>
	<g>
		<g>
			<path class="st1" d="M41.1,30.9c-2.6,0-5.1-0.9-7.5-2.5c-3.2-2.2-5.4-5.5-6.1-9.1c-0.7-3.5,0-7.2,2-10.4c1.9-3.1,4.6-5.1,7.7-5.6
				c3.1-0.5,6.5,0.5,9.8,2.8c3.3,2.3,5.5,5.3,6.4,8.6c0.9,3.3,0.3,6.8-1.6,9.9c-2,3.2-4.8,5.3-8,6.1C42.8,30.8,41.9,30.9,41.1,30.9z
				 M38.7,4.1c-3.4,0-6.4,1.8-8.5,5.2c-1.8,2.9-2.5,6.3-1.8,9.6c0.7,3.4,2.7,6.4,5.7,8.5c3,2.1,6.3,2.8,9.4,2.1
				c3-0.7,5.6-2.7,7.4-5.6l0,0c1.8-2.9,2.3-6,1.5-9.1c-0.8-3.1-2.9-5.8-6-8C43.8,5,41.2,4.1,38.7,4.1z"/>
		</g>
	</g>
</g>
<g>
	<g>
		<g>
			<g>
				<path class="st0" d="M46.6,6.4C40.1,1.8,33.6,3,29.8,9.1c-2,3.3-2.6,7.2-1.7,10.8c-1.7-0.5-8-1.3-13.9,9.3l2.9,2
					c0,0,2.9-2.7,6.1-4.6c0.3-0.2,0.7,0.2,0.4,0.5l-7.6,11.7c-0.2,0.4-0.1,0.8,0.2,1.1L31.9,50c0.3,0.2,0.8,0.1,1-0.3l5.6-10.8
					c0.1-0.1,0.2-0.1,0.2,0.1c-0.3,3-0.9,5.6-0.9,5.6l3,1.8c5.1-8.7,3.5-13.9,2.2-16.3c3.3-0.6,6.2-2.7,8.2-6
					C55.1,18.1,53.2,11,46.6,6.4z"/>
			</g>
		</g>
	</g>
	<g>
		<g>
			<g>
				<path class="st1" d="M32.3,50.6c-0.2,0-0.4-0.1-0.6-0.2L16,40.3c-0.6-0.4-0.8-1.2-0.4-1.8l0,0l7.3-11.1
					c-2.9,1.8-5.5,4.2-5.5,4.2l-0.3,0.3l-3.6-2.5l0.2-0.4c5.5-9.7,11.2-10.1,13.7-9.7c-0.7-3.5,0-7.3,2-10.4
					c1.9-3.1,4.6-5.1,7.7-5.6c3.1-0.5,6.5,0.5,9.8,2.8c3.3,2.3,5.5,5.3,6.4,8.6c0.9,3.3,0.3,6.8-1.6,9.9c-1.9,3.1-4.7,5.3-7.9,6
					c1.3,2.7,2.3,8-2.5,16.2l-0.2,0.4l-3.8-2.3l0.1-0.4c0,0,0.3-1.5,0.6-3.5l-4.6,9c-0.2,0.3-0.4,0.5-0.8,0.6
					C32.5,50.6,32.4,50.6,32.3,50.6z M16.5,39.1c-0.1,0.1,0,0.3,0.1,0.4l15.6,10.1c0.1,0,0.1,0,0.2,0c0,0,0.1,0,0.1-0.1l5.6-10.8
					c0.1-0.3,0.4-0.4,0.7-0.3c0.3,0.1,0.4,0.4,0.4,0.7c-0.2,2.4-0.6,4.5-0.8,5.3l2.3,1.4c4.6-8.2,3.2-13.1,1.9-15.3l-0.4-0.6
					l0.7-0.1c3.2-0.6,6-2.6,7.9-5.7c1.8-2.9,2.3-6,1.5-9.1c-0.8-3.1-2.9-5.8-6-8c-6.3-4.4-12.5-3.4-16.2,2.5
					c-2,3.2-2.6,6.9-1.6,10.4l0.2,0.9L28,20.4c-1.7-0.5-7.5-1.2-13.2,8.6l2.2,1.5c0.8-0.7,3.3-2.8,5.9-4.4c0.3-0.2,0.8-0.1,1,0.2
					c0.3,0.3,0.3,0.8,0.1,1.1L16.5,39.1z"/>
			</g>
		</g>
	</g>
</g>
<g>
	<g>
		<g>
			<g>
				<g>
					<path class="st2" d="M51.2,18.2c1.6-1.6,2.8-3.8,2.8-3.8c-0.8-0.6-2.3-1.1-3.4-1.3c-0.8-0.1-2-0.2-2.5-0.9
						c-0.8-1.2-1.8-2.3-3.1-3.1c-1.3-0.8-2.6-1.3-4-1.5c-0.8-0.1-1.1-1-1.6-1.7c-0.8-1.1-2-2.6-3-3.1c0,0-0.8,2.1-1.3,4.1
						C34.7,8,34.2,9,33.4,9.7c-0.7,0.7-1.3,1.4-1.8,2.3c-2.9,5-0.5,10.4,4.3,13.5s10.2,2.7,13.1-2.3c0.4-0.7,0.6-1.3,0.7-1.8
						C49.7,20.2,50.3,19,51.2,18.2z"/>
				</g>
			</g>
		</g>
		<g>
			<g>
				<g>
					<path class="st1" d="M35.7,25.8c-2.5-1.6-4.3-3.8-5.1-6.2c-0.9-2.6-0.6-5.3,0.8-7.7c0.5-0.9,1.1-1.7,1.9-2.4
						c0.8-0.7,1.3-1.7,1.6-2.7c0.5-2,1.3-4.1,1.3-4.2l0.1-0.3l0.3,0.1c1,0.5,2.3,2,3.1,3.1c0.1,0.2,0.3,0.4,0.4,0.6
						c0.3,0.5,0.5,0.9,1,1c1.5,0.2,2.9,0.7,4.1,1.5c1.3,0.8,2.3,1.9,3.2,3.2c0.3,0.5,1.2,0.6,1.9,0.7c0.2,0,0.3,0,0.4,0.1
						c1.2,0.2,2.7,0.7,3.6,1.4l0.2,0.2l-0.1,0.2c0,0.1-1.2,2.2-2.8,3.9c-0.8,0.8-1.4,1.9-1.5,3.1c-0.1,0.7-0.3,1.3-0.7,1.9
						c-1.4,2.5-3.5,4-6,4.3C40.7,28.1,38.1,27.4,35.7,25.8z M36.5,3.2c-0.3,0.7-0.8,2.2-1.2,3.7c-0.3,1.2-0.9,2.2-1.8,3
						c-0.7,0.7-1.3,1.4-1.8,2.2c-1.3,2.3-1.6,4.8-0.7,7.2c0.8,2.3,2.5,4.4,4.9,5.9c2.3,1.5,4.9,2.2,7.1,1.8c2.3-0.3,4.3-1.7,5.6-4
						c0.3-0.6,0.5-1.1,0.6-1.7c0.2-1.3,0.8-2.5,1.7-3.5l0.2,0.2L51,17.9c1.2-1.3,2.2-2.9,2.6-3.5c-0.8-0.5-2.1-0.9-3.1-1.1
						c-0.1,0-0.3,0-0.4-0.1c-0.8-0.1-1.8-0.3-2.3-1c-0.8-1.2-1.8-2.2-3-3c-1.2-0.8-2.5-1.3-3.9-1.5c-0.7-0.1-1.1-0.7-1.4-1.3
						c-0.1-0.2-0.2-0.4-0.3-0.5C38.3,5,37.3,3.8,36.5,3.2z"/>
				</g>
			</g>
		</g>
	</g>
	<g>
		<g>
			<g>
				<g>
					<path class="st3" d="M50.2,19.6c0.3-0.5,0.6-1,1-1.4c1.6-1.6,2.8-3.8,2.8-3.8c-0.8-0.6-2.3-1.1-3.4-1.3
						c-0.6-0.1-1.5-0.2-2.1-0.5c-0.2-0.1-0.3-0.2-0.4-0.4c-0.3-0.5-0.7-1-1.2-1.5c-1.5,2.4-3.8,7.9,2.3,12.1
						c0.2-0.5,0.3-0.9,0.4-1.3C49.6,20.8,49.9,20.1,50.2,19.6z"/>
				</g>
			</g>
		</g>
	</g>
	<g>
		<g>
			<g>
				<g>
					<path class="st1" d="M35.7,25.8c-2.5-1.6-4.3-3.8-5.1-6.2c-0.9-2.6-0.6-5.3,0.8-7.7c0.5-0.9,1.1-1.7,1.9-2.4
						c0.8-0.7,1.3-1.7,1.6-2.7c0.5-2,1.3-4.1,1.3-4.2l0.1-0.3l0.3,0.1c1,0.5,2.3,2,3.1,3.1c0.1,0.2,0.3,0.4,0.4,0.6
						c0.3,0.5,0.5,0.9,1,1c1.5,0.2,2.9,0.7,4.1,1.5c1.3,0.8,2.3,1.9,3.2,3.2c0.3,0.5,1.2,0.6,1.9,0.7c0.2,0,0.3,0,0.4,0.1
						c1.2,0.2,2.7,0.7,3.6,1.4l0.2,0.2l-0.1,0.2c0,0.1-1.2,2.2-2.8,3.9c-0.8,0.8-1.4,1.9-1.5,3.1c-0.1,0.7-0.3,1.3-0.7,1.9
						c-1.4,2.5-3.5,4-6,4.3C40.7,28.1,38.1,27.4,35.7,25.8z M36.5,3.2c-0.3,0.7-0.8,2.2-1.2,3.7c-0.3,1.2-0.9,2.2-1.8,3
						c-0.7,0.7-1.3,1.4-1.8,2.2c-1.3,2.3-2.2,5.1-0.7,7.2c1.8,2.4,2.5,3,5.2,4.9c3.1,2.1,4,2.7,6.8,2.9c2.4,0.1,4.3-1.7,5.6-4
						c0.3-0.6,0.5-1.1,0.6-1.7c0.2-1.3,0.8-2.5,1.7-3.5l0.2,0.2L51,17.9c1.2-1.3,2.2-2.9,2.6-3.5c-0.8-0.5-2.1-0.9-3.1-1.1
						c-0.1,0-0.3,0-0.4-0.1c-0.8-0.1-1.8-0.3-2.3-1c-0.8-1.2-1.8-2.2-3-3c-1.2-0.8-2.5-1.3-3.9-1.5c-0.7-0.1-1.1-0.7-1.4-1.3
						c-0.1-0.2-0.2-0.4-0.3-0.5C38.3,5,37.3,3.8,36.5,3.2z"/>
				</g>
			</g>
		</g>
	</g>
	<g>
		<g>
			<g>
				<g>
					<g>
						<path class="st1" d="M36.7,5.2C36.7,5.2,36.7,5.2,36.7,5.2c0,0.1,0.1,0.2,0,0.1c0,0.1,0,0.1,0,0.2c0,0.1,0.1,0.2,0.1,0.3
							C36.9,6,36.9,6.2,37,6.4c0.1,0.2,0.1,0.4,0.2,0.7c0,0.1,0,0.2,0.1,0.3c0,0,0,0.1,0,0.1c0,0,0,0,0,0.1c0,0.1,0,0.1,0,0.2
							c0,0.1,0.2,0.2,0.3,0.2c0.1-0.1,0.2-0.2,0.2-0.4c0,0,0-0.1,0-0.1c0,0.1,0,0,0,0c0-0.1,0-0.1,0-0.2c0-0.1,0-0.2-0.1-0.4
							c0-0.2-0.1-0.5-0.2-0.7c-0.1-0.2-0.1-0.4-0.2-0.7c-0.1-0.2-0.1-0.5-0.2-0.7c-0.1-0.1-0.2-0.2-0.4-0.1
							C36.7,4.8,36.6,5,36.7,5.2L36.7,5.2z"/>
					</g>
				</g>
			</g>
		</g>
	</g>
	<g>
		<g>
			<g>
				<g>
					<g>
						<path class="st1" d="M51.9,14.4c-0.2,0-0.5,0.1-0.7,0.1c-0.2,0.1-0.4,0.1-0.6,0.1c-0.2,0-0.4,0.1-0.6,0.2
							c-0.1,0-0.2,0.1-0.3,0.1c-0.1,0-0.1,0.1-0.2,0.1c0,0,0,0,0,0c0,0,0,0,0,0c0,0,0,0,0,0c0,0,0,0,0,0c-0.1,0-0.2,0.2-0.2,0.4
							c0,0.1,0.2,0.2,0.3,0.2c0.1,0,0.1,0,0.2-0.1c0,0,0,0,0.1,0c0,0,0,0,0,0c0.1,0,0.2-0.1,0.3-0.1c0.2-0.1,0.4-0.1,0.6-0.2
							c0.2,0,0.4-0.1,0.6-0.1c0.1,0,0.2-0.1,0.3-0.1c0.1,0,0.1,0,0.2,0c0,0,0,0,0,0c0,0,0,0,0,0c0,0,0.1,0,0.1,0
							c0.1,0,0.3-0.1,0.3-0.3C52.2,14.6,52.1,14.4,51.9,14.4L51.9,14.4z"/>
					</g>
				</g>
			</g>
		</g>
	</g>
	<g>
		<g>
			<g>
				<g>
					<ellipse transform="matrix(0.3087 -0.9512 0.9512 0.3087 12.9858 45.3285)" class="st1" cx="37.7" cy="13.7" rx="1" ry="0.9"/>
				</g>
			</g>
		</g>
	</g>
	<g>
		<g>
			<g>
				<g>
					<ellipse transform="matrix(0.3087 -0.9512 0.9512 0.3087 13.4782 54.267)" class="st1" cx="44.1" cy="17.9" rx="1" ry="0.9"/>
				</g>
			</g>
		</g>
	</g>
	<g>
		<g>
			<g>
				<g>
					<path class="st1" d="M39.7,19.7c-0.1,0.2-0.8,0.7-1.2,0.5c-0.4-0.2-0.3-1.1-0.2-1.4c0.1-0.2,0.6-0.3,0.9,0
						C39.7,19,39.8,19.4,39.7,19.7z"/>
				</g>
			</g>
		</g>
	</g>
	<g>
		<g>
			<g>
				<g>
					<polygon class="st1" points="37.6,21.1 38.7,19.3 39.1,19.6 38.1,21.4 					"/>
				</g>
			</g>
		</g>
	</g>
	<g>
		<g>
			<g>
				<g>
					<path class="st1" d="M36.9,21.2c-0.6-0.4-0.9-1.1-0.9-1.5c0-0.2,0.1-0.3,0.2-0.4s0.3,0.1,0.3,0.2c0,0.1,0.2,1.3,1.4,1.3
						c0.2,0,0.3,0.1,0.3,0.3c0,0.2-0.1,0.3-0.3,0.3C37.5,21.5,37.2,21.4,36.9,21.2z"/>
				</g>
			</g>
		</g>
	</g>
	<g>
		<g>
			<g>
				<g>
					<path class="st1" d="M38.3,22.1c-0.3-0.2-0.5-0.4-0.7-0.8c-0.1-0.2,0-0.3,0.1-0.4c0.1-0.1,0.3,0,0.4,0.1
						c0.5,1.1,1.7,0.7,1.7,0.7c0.2-0.1,0.3,0,0.4,0.2c0,0.2-0.1,0.3-0.2,0.4C39.6,22.4,38.9,22.5,38.3,22.1z"/>
				</g>
			</g>
		</g>
	</g>
	<g>
		<g>
			<g>
				<g>
					<path class="st1" d="M34.7,16.4C34.7,16.4,34.7,16.4,34.7,16.4l-1.5-1.5c-0.1-0.1-0.1-0.2,0-0.3c0.1-0.1,0.2-0.1,0.3,0L35,16
						c0.1,0.1,0.1,0.2,0,0.3C34.9,16.4,34.8,16.5,34.7,16.4z"/>
				</g>
			</g>
		</g>
	</g>
	<g>
		<g>
			<g>
				<g>
					<path class="st1" d="M32.4,16.4c-0.1-0.1-0.1-0.2-0.1-0.3c0-0.1,0.2-0.2,0.3-0.1l1.9,0.8c0.1,0,0.1,0.2,0.1,0.3
						c0,0.1-0.2,0.2-0.3,0.1L32.4,16.4C32.4,16.4,32.4,16.4,32.4,16.4z"/>
				</g>
			</g>
		</g>
	</g>
	<g>
		<g>
			<g>
				<g>
					<path class="st1" d="M31.7,18.1c-0.1,0-0.1-0.1-0.1-0.2c0-0.1,0.1-0.2,0.2-0.2l2.1,0c0.1,0,0.2,0.1,0.2,0.2
						c0,0.1-0.1,0.2-0.2,0.2L31.7,18.1C31.8,18.1,31.8,18.1,31.7,18.1z"/>
				</g>
			</g>
		</g>
	</g>
	<g>
		<g>
			<g>
				<g>
					<path class="st1" d="M43.9,22.3c-0.1-0.1-0.1-0.2-0.1-0.3c0-0.1,0.2-0.2,0.3-0.1l1.9,0.8c0.1,0,0.1,0.2,0.1,0.3
						c0,0.1-0.2,0.2-0.3,0.1L43.9,22.3C44,22.4,44,22.4,43.9,22.3z"/>
				</g>
			</g>
		</g>
	</g>
	<g>
		<g>
			<g>
				<g>
					<path class="st1" d="M45,24.6C45,24.6,45,24.6,45,24.6l-1.6-1.4c-0.1-0.1-0.1-0.2,0-0.3c0.1-0.1,0.2-0.1,0.3,0l1.5,1.4
						c0.1,0.1,0.1,0.2,0,0.3C45.2,24.6,45.1,24.6,45,24.6z"/>
				</g>
			</g>
		</g>
	</g>
	<g>
		<g>
			<g>
				<g>
					<path class="st1" d="M43.9,26C43.9,25.9,43.9,25.9,43.9,26l-1-2c-0.1-0.1,0-0.2,0.1-0.3c0.1-0.1,0.2,0,0.3,0.1l0.9,2
						c0.1,0.1,0,0.2-0.1,0.3C44.1,26,44,26,43.9,26z"/>
				</g>
			</g>
		</g>
	</g>
</g>
<g>
	<g>
		<g>
			<path class="st1" d="M38.7,39.5C38.7,39.5,38.7,39.4,38.7,39.5c-0.3,0-0.5-0.3-0.5-0.6c0.3-2.2,0.2-2.8-1.2-4.1
				c-0.2-0.2-0.2-0.5,0-0.7s0.5-0.2,0.7,0c1.7,1.6,1.9,2.6,1.5,5.1C39.2,39.3,39,39.5,38.7,39.5z"/>
		</g>
	</g>
</g>
<g>
	<g>
		<g>
			<path class="st1" d="M17.1,32l-3.7-2.4c-0.2-0.1-0.3-0.4-0.1-0.6l0.2-0.3c0.1-0.2,0.4-0.3,0.6-0.2l3.7,2.4
				c0.2,0.1,0.3,0.4,0.1,0.6l-0.2,0.3C17.5,32.1,17.3,32.1,17.1,32z"/>
		</g>
	</g>
</g>
<g>
	<g>
		<g>
			<g>
				<path class="st1" d="M13.6,57.7l-5.9-4.6c-0.3-0.2-0.4-0.7-0.1-1l0.4-0.5c0.2-0.3,0.7-0.4,1-0.2l5.9,4.6c0.3,0.2,0.4,0.7,0.1,1
					l-0.4,0.5C14.4,57.9,13.9,58,13.6,57.7z"/>
			</g>
		</g>
	</g>
</g>
<g>
	<g>
		<g>
			<g>
				<path class="st1" d="M24.6,64.5L18,61.1c-0.3-0.2-0.5-0.6-0.3-1l0.3-0.6c0.2-0.4,0.6-0.5,0.9-0.4l6.6,3.3c0.3,0.2,0.5,0.6,0.3,1
					l-0.3,0.6C25.4,64.5,25,64.6,24.6,64.5z"/>
			</g>
		</g>
	</g>
</g>
<g>
	<g>
		<g>
			<path class="st1" d="M41,47.1l-3.8-1.9c-0.2-0.1-0.4-0.4-0.2-0.7l0.2-0.4c0.1-0.3,0.4-0.4,0.7-0.3l3.8,1.9
				c0.2,0.1,0.4,0.4,0.2,0.7l-0.2,0.4C41.5,47.1,41.2,47.3,41,47.1z"/>
		</g>
	</g>
</g>
<g>
	<g>
		<g>
			<path class="st4" d="M28.9,36.1l-4.2-2.7c-0.9-0.6-1.1-1.8-0.6-2.7l1.7-3c0.5-0.9,1.7-1.2,2.5-0.7l4.2,2.7
				c0.9,0.6,1.1,1.8,0.6,2.7l-1.7,3C30.9,36.4,29.7,36.7,28.9,36.1z"/>
		</g>
	</g>
</g>
<g>
	<g>
		<g>
			<ellipse class="st5" cx="35.4" cy="33.2" rx="0.8" ry="0.8"/>
		</g>
	</g>
</g>
<g>
	<g>
		<g>
			<ellipse class="st6" cx="34" cy="35.5" rx="0.8" ry="0.8"/>
		</g>
	</g>
</g>
<g>
	<g>
		<g>
			<g>
				<ellipse class="st7" cx="24.7" cy="44.2" rx="2.3" ry="2.5"/>
			</g>
		</g>
	</g>
	<g>
		<g>
			<g>
				<path class="st1" d="M24.7,47.2c-0.1,0-0.2,0-0.3,0c-0.7-0.1-1.4-0.5-1.9-1.1c-0.5-0.6-0.7-1.4-0.6-2.2c0.1-0.8,0.4-1.5,1-2
					c0.6-0.5,1.3-0.7,2.1-0.7c0.7,0.1,1.4,0.5,1.9,1.1c0.5,0.6,0.7,1.4,0.6,2.2l0,0C27.4,46.1,26.1,47.2,24.7,47.2z M24.7,42.3
					c-0.4,0-0.8,0.2-1.2,0.4c-0.4,0.3-0.6,0.8-0.7,1.3c0,0.5,0.1,1,0.4,1.4c0.3,0.4,0.8,0.7,1.2,0.7c1,0.1,1.9-0.7,2-1.8
					c0-0.5-0.1-1-0.4-1.4c-0.3-0.4-0.8-0.7-1.2-0.7C24.8,42.3,24.7,42.3,24.7,42.3z M27,44.5L27,44.5L27,44.5z"/>
			</g>
		</g>
	</g>
</g>
<g>
	<g>
		<g>
			<g>
				<path class="st1" d="M23.6,42.6c-0.1,0-0.2,0-0.3-0.1L16.8,38c-0.2-0.2-0.3-0.5-0.1-0.7c0.1-0.2,0.4-0.3,0.7-0.1l6.5,4.5
					c0.2,0.2,0.3,0.5,0.1,0.7C23.9,42.5,23.8,42.6,23.6,42.6z"/>
			</g>
		</g>
	</g>
</g>
<g>
	<g>
		<g>
			<g>
				<path class="st1" d="M33.8,48.2c-0.1,0-0.1,0-0.2,0L26.8,45c-0.2-0.1-0.4-0.4-0.2-0.7c0.1-0.3,0.4-0.4,0.6-0.3l6.8,3.2
					c0.2,0.1,0.4,0.4,0.2,0.7C34.2,48.1,34,48.2,33.8,48.2z"/>
			</g>
		</g>
	</g>
</g>
<g>
	<g>
		<g>
			<g>
				<path class="st1" d="M17.5,40.9c-0.1,0-0.2,0-0.3-0.1c-0.2-0.2-0.3-0.5-0.1-0.7l1-1.4c0.2-0.2,0.5-0.3,0.7-0.1
					c0.2,0.2,0.3,0.5,0.1,0.7l-1,1.4C17.8,40.8,17.7,40.9,17.5,40.9z"/>
			</g>
		</g>
	</g>
</g>
<g>
	<g>
		<g>
			<g>
				<path class="st1" d="M20.2,42.6c-0.1,0-0.2,0-0.3-0.1c-0.2-0.2-0.3-0.5-0.1-0.7l1-1.4c0.2-0.2,0.5-0.3,0.7-0.1
					c0.2,0.2,0.3,0.5,0.1,0.7l-1,1.4C20.5,42.5,20.3,42.6,20.2,42.6z"/>
			</g>
		</g>
	</g>
</g>
<g>
	<g>
		<g>
			<g>
				<path class="st1" d="M28.5,47.7c-0.1,0-0.1,0-0.2-0.1c-0.2-0.1-0.3-0.4-0.2-0.7l0.6-1.3c0.1-0.3,0.4-0.4,0.7-0.2
					c0.2,0.1,0.3,0.4,0.2,0.7L29,47.4C28.9,47.6,28.7,47.7,28.5,47.7z"/>
			</g>
		</g>
	</g>
</g>
<g>
	<g>
		<g>
			<g>
				<path class="st1" d="M30.7,49.2c-0.1,0-0.1,0-0.2,0c-0.2-0.1-0.4-0.4-0.3-0.7l0.8-1.9c0.1-0.3,0.4-0.4,0.6-0.3s0.4,0.4,0.3,0.7
					l-0.8,1.9C31.1,49.1,30.9,49.2,30.7,49.2z"/>
			</g>
		</g>
	</g>
</g>
<g>
	<g>
		<g>
			<g>
				<path class="st1" d="M13.1,55.7c-0.1,0-0.2,0-0.2-0.1c-0.2-0.1-0.2-0.4-0.1-0.6l3.9-5.1c0.1-0.2,0.4-0.2,0.5-0.1
					c0.2,0.1,0.2,0.4,0.1,0.6l-3.9,5.1C13.3,55.6,13.2,55.7,13.1,55.7z"/>
			</g>
		</g>
	</g>
</g>
<g>
	<g>
		<g>
			<g>
				<path class="st1" d="M23.3,51.3c-0.1,0-0.1,0-0.2-0.1l-0.9-0.6C22,50.5,21.9,50.2,22,50c0.1-0.2,0.4-0.3,0.5-0.1l0.9,0.6
					c0.2,0.1,0.2,0.4,0.1,0.6C23.5,51.2,23.4,51.3,23.3,51.3z"/>
			</g>
		</g>
	</g>
</g>
<g>
	<g>
		<g>
			<g>
				<path class="st1" d="M22.7,53.3c-0.1,0-0.2,0-0.2-0.1l-1.1-0.8c-0.2-0.1-0.2-0.4-0.1-0.6c0.1-0.2,0.4-0.2,0.5-0.1l1.1,0.8
					c0.2,0.1,0.2,0.4,0.1,0.6C22.9,53.2,22.8,53.3,22.7,53.3z"/>
			</g>
		</g>
	</g>
</g>
</svg>
